<svg id="visual" viewBox="0 0 900 600" width="900" height="600" xmlns="http://www.w3.org/2000/svg" xmlns:xlink="http://www.w3.org/1999/xlink" version="1.1"><rect x="0" y="0" width="900" height="600" fill="#ffffff"></rect><defs><linearGradient id="grad1_0" x1="33.3%" y1="0%" x2="100%" y2="100%"><stop offset="20%" stop-color="#4facf7" stop-opacity="1"></stop><stop offset="80%" stop-color="#4facf7" stop-opacity="1"></stop></linearGradient></defs><defs><linearGradient id="grad1_1" x1="33.3%" y1="0%" x2="100%" y2="100%"><stop offset="20%" stop-color="#4facf7" stop-opacity="1"></stop><stop offset="80%" stop-color="#98c7fa" stop-opacity="1"></stop></linearGradient></defs><defs><linearGradient id="grad1_2" x1="33.3%" y1="0%" x2="100%" y2="100%"><stop offset="20%" stop-color="#cee2fd" stop-opacity="1"></stop><stop offset="80%" stop-color="#98c7fa" stop-opacity="1"></stop></linearGradient></defs><defs><linearGradient id="grad1_3" x1="33.3%" y1="0%" x2="100%" y2="100%"><stop offset="20%" stop-color="#cee2fd" stop-opacity="1"></stop><stop offset="80%" stop-color="#ffffff" stop-opacity="1"></stop></linearGradient></defs><defs><linearGradient id="grad2_0" x1="0%" y1="0%" x2="66.7%" y2="100%"><stop offset="20%" stop-color="#4facf7" stop-opacity="1"></stop><stop offset="80%" stop-color="#4facf7" stop-opacity="1"></stop></linearGradient></defs><defs><linearGradient id="grad2_1" x1="0%" y1="0%" x2="66.7%" y2="100%"><stop offset="20%" stop-color="#98c7fa" stop-opacity="1"></stop><stop offset="80%" stop-color="#4facf7" stop-opacity="1"></stop></linearGradient></defs><defs><linearGradient id="grad2_2" x1="0%" y1="0%" x2="66.7%" y2="100%"><stop offset="20%" stop-color="#98c7fa" stop-opacity="1"></stop><stop offset="80%" stop-color="#cee2fd" stop-opacity="1"></stop></linearGradient></defs><defs><linearGradient id="grad2_3" x1="0%" y1="0%" x2="66.7%" y2="100%"><stop offset="20%" stop-color="#ffffff" stop-opacity="1"></stop><stop offset="80%" stop-color="#cee2fd" stop-opacity="1"></stop></linearGradient></defs><g transform="translate(900, 0)"><path d="M0 378.6C-37 368 -73.9 357.5 -112.8 347.1C-151.6 336.8 -192.4 326.6 -219.2 301.8C-246.1 276.9 -259.1 237.5 -283.2 205.7C-307.2 174 -342.3 150 -360.1 117C-377.8 84 -378.2 42 -378.6 0L0 0Z" fill="#e7f1fe"></path><path d="M0 283.9C-27.7 276 -55.5 268.1 -84.6 260.4C-113.7 252.6 -144.3 244.9 -164.4 226.3C-184.6 207.7 -194.3 178.1 -212.4 154.3C-230.4 130.5 -256.7 112.5 -270 87.7C-283.4 63 -283.6 31.5 -283.9 0L0 0Z" fill="#b4d4fc"></path><path d="M0 189.3C-18.5 184 -37 178.7 -56.4 173.6C-75.8 168.4 -96.2 163.3 -109.6 150.9C-123.1 138.5 -129.6 118.7 -141.6 102.9C-153.6 87 -171.2 75 -180 58.5C-188.9 42 -189.1 21 -189.3 0L0 0Z" fill="#78b9f9"></path><path d="M0 94.6C-9.2 92 -18.5 89.4 -28.2 86.8C-37.9 84.2 -48.1 81.6 -54.8 75.4C-61.5 69.2 -64.8 59.4 -70.8 51.4C-76.8 43.5 -85.6 37.5 -90 29.2C-94.5 21 -94.5 10.5 -94.6 0L0 0Z" fill="#4facf7"></path></g><g transform="translate(0, 600)"><path d="M0 -378.6C36.9 -363.4 73.9 -348.3 108.5 -333.8C143.1 -319.4 175.3 -305.7 209.8 -288.8C244.4 -272 281.2 -252 306.3 -222.5C331.3 -193 344.7 -153.9 354.7 -115.3C364.8 -76.6 371.7 -38.3 378.6 0L0 0Z" fill="#e7f1fe"></path><path d="M0 -283.9C27.7 -272.6 55.4 -261.2 81.3 -250.4C107.3 -239.5 131.5 -229.2 157.4 -216.6C183.3 -204 210.9 -189 229.7 -166.9C248.5 -144.8 258.5 -115.5 266.1 -86.4C273.6 -57.4 278.8 -28.7 283.9 0L0 0Z" fill="#b4d4fc"></path><path d="M0 -189.3C18.5 -181.7 36.9 -174.1 54.2 -166.9C71.5 -159.7 87.7 -152.8 104.9 -144.4C122.2 -136 140.6 -126 153.1 -111.3C165.7 -96.5 172.3 -77 177.4 -57.6C182.4 -38.3 185.9 -19.1 189.3 0L0 0Z" fill="#78b9f9"></path><path d="M0 -94.6C9.2 -90.9 18.5 -87.1 27.1 -83.5C35.8 -79.8 43.8 -76.4 52.5 -72.2C61.1 -68 70.3 -63 76.6 -55.6C82.8 -48.3 86.2 -38.5 88.7 -28.8C91.2 -19.1 92.9 -9.6 94.6 0L0 0Z" fill="#4facf7"></path></g></svg>