<svg id="visual" viewBox="0 0 900 600" width="900" height="600" xmlns="http://www.w3.org/2000/svg" xmlns:xlink="http://www.w3.org/1999/xlink" version="1.1"><rect x="0" y="0" width="900" height="600" fill="#ffffff"></rect><path d="M0 435L21.5 434.2C43 433.3 86 431.7 128.8 421C171.7 410.3 214.3 390.7 257.2 390.7C300 390.7 343 410.3 385.8 414.2C428.7 418 471.3 406 514.2 395.7C557 385.3 600 376.7 642.8 385.2C685.7 393.7 728.3 419.3 771.2 424.7C814 430 857 415 878.5 407.5L900 400L900 601L878.5 601C857 601 814 601 771.2 601C728.3 601 685.7 601 642.8 601C600 601 557 601 514.2 601C471.3 601 428.7 601 385.8 601C343 601 300 601 257.2 601C214.3 601 171.7 601 128.8 601C86 601 43 601 21.5 601L0 601Z" fill="#b2dcff"></path><path d="M0 443L21.5 448.5C43 454 86 465 128.8 467C171.7 469 214.3 462 257.2 461.5C300 461 343 467 385.8 469.2C428.7 471.3 471.3 469.7 514.2 465.7C557 461.7 600 455.3 642.8 453.7C685.7 452 728.3 455 771.2 454.3C814 453.7 857 449.3 878.5 447.2L900 445L900 601L878.5 601C857 601 814 601 771.2 601C728.3 601 685.7 601 642.8 601C600 601 557 601 514.2 601C471.3 601 428.7 601 385.8 601C343 601 300 601 257.2 601C214.3 601 171.7 601 128.8 601C86 601 43 601 21.5 601L0 601Z" fill="#6fb9ff"></path><path d="M0 478L21.5 484C43 490 86 502 128.8 508.8C171.7 515.7 214.3 517.3 257.2 511.8C300 506.3 343 493.7 385.8 494.3C428.7 495 471.3 509 514.2 512.2C557 515.3 600 507.7 642.8 505.3C685.7 503 728.3 506 771.2 505.3C814 504.7 857 500.3 878.5 498.2L900 496L900 601L878.5 601C857 601 814 601 771.2 601C728.3 601 685.7 601 642.8 601C600 601 557 601 514.2 601C471.3 601 428.7 601 385.8 601C343 601 300 601 257.2 601C214.3 601 171.7 601 128.8 601C86 601 43 601 21.5 601L0 601Z" fill="#2093ff"></path><path d="M0 533L21.5 532.8C43 532.7 86 532.3 128.8 537C171.7 541.7 214.3 551.3 257.2 553.7C300 556 343 551 385.8 551C428.7 551 471.3 556 514.2 551.7C557 547.3 600 533.7 642.8 532.3C685.7 531 728.3 542 771.2 547C814 552 857 551 878.5 550.5L900 550L900 601L878.5 601C857 601 814 601 771.2 601C728.3 601 685.7 601 642.8 601C600 601 557 601 514.2 601C471.3 601 428.7 601 385.8 601C343 601 300 601 257.2 601C214.3 601 171.7 601 128.8 601C86 601 43 601 21.5 601L0 601Z" fill="#0066ff"></path></svg>